# xmcd CD database file
#
# Track frame offsets:
#	150
#	27267
#	45376
#	64436
#	85606
#	108714
#	123757
#	142854
#	162573
#	170583
#	183058
#	199103
#	217360
#	241286
#	259270
#	299175
#
# Disc length: 4275 seconds
#
# Revision: 0
# Processed by: cddbd v1.5.2PL0 Copyright (c) Steve Scherf et al.
# Submitted via: CDex 1.70beta2
#
DISCID=f310b110
DTITLE=Big Daddy Wilson and Doc Fozz - Live
DYEAR=2006
DGENRE=Blues
TTITLE0=I Heard The Angels Singing
TTITLE1=Before You Accuse Me
TTITLE2=Let Me Love You Baby
TTITLE3=You Can Love Yourself
TTITLE4=Walking
TTITLE5=San Francisco Bay
TTITLE6=Born With The Blues
TTITLE7=My Day Will Come
TTITLE8=Motherless Child
TTITLE9=Grandmas Hands
TTITLE10=Early In The Morning
TTITLE11=Wanna Be Your Man
TTITLE12=Railroad Worksong
TTITLE13=Loola Loo
TTITLE14=Summertime
TTITLE15=Sittin' On The Dock Of The Bay
EXTD=YEAR: 2006
EXTT0=
EXTT1=
EXTT2=
EXTT3=
EXTT4=
EXTT5=
EXTT6=
EXTT7=
EXTT8=
EXTT9=
EXTT10=
EXTT11=
EXTT12=
EXTT13=
EXTT14=
EXTT15=
PLAYORDER=
